<mxfile host="app.diagrams.net" modified="2022-10-24T08:22:47.326Z" agent="5.0 (Windows NT 10.0; Win64; x64) AppleWebKit/537.36 (KHTML, like Gecko) Chrome/106.0.0.0 Safari/537.36" etag="ZSqDHtQFp1lKkG2mSifi" version="20.4.1" type="github">
  <diagram name="Page-1" id="e7e014a7-5840-1c2e-5031-d8a46d1fe8dd">
    <mxGraphModel dx="782" dy="428" grid="1" gridSize="10" guides="1" tooltips="1" connect="1" arrows="1" fold="1" page="1" pageScale="1" pageWidth="1920" pageHeight="1200" background="none" math="0" shadow="0">
      <root>
        <mxCell id="0" />
        <mxCell id="1" parent="0" />
        <mxCell id="2" value="福利" style="swimlane;whiteSpace=wrap" parent="1" vertex="1">
          <mxGeometry x="164.5" y="128" width="280" height="802" as="geometry" />
        </mxCell>
        <mxCell id="QLII5rvh0D_0dj86Ir73-43" style="edgeStyle=orthogonalEdgeStyle;rounded=0;orthogonalLoop=1;jettySize=auto;html=1;entryX=0.5;entryY=0;entryDx=0;entryDy=0;" edge="1" parent="2" source="QLII5rvh0D_0dj86Ir73-41" target="QLII5rvh0D_0dj86Ir73-42">
          <mxGeometry relative="1" as="geometry" />
        </mxCell>
        <mxCell id="QLII5rvh0D_0dj86Ir73-41" value="水滴激活" style="rounded=0;whiteSpace=wrap;html=1;" vertex="1" parent="2">
          <mxGeometry x="65.5" y="122" width="120" height="60" as="geometry" />
        </mxCell>
        <mxCell id="QLII5rvh0D_0dj86Ir73-42" value="RN注册成功" style="rounded=1;whiteSpace=wrap;html=1;" vertex="1" parent="2">
          <mxGeometry x="65.5" y="312" width="120" height="60" as="geometry" />
        </mxCell>
        <mxCell id="QLII5rvh0D_0dj86Ir73-46" value="事件总线" style="text;html=1;align=center;verticalAlign=middle;resizable=0;points=[];autosize=1;strokeColor=none;fillColor=none;" vertex="1" parent="2">
          <mxGeometry x="210" y="302" width="70" height="30" as="geometry" />
        </mxCell>
        <mxCell id="3" value="MCM" style="swimlane;whiteSpace=wrap" parent="1" vertex="1">
          <mxGeometry x="444.5" y="128" width="280" height="802" as="geometry" />
        </mxCell>
        <mxCell id="QLII5rvh0D_0dj86Ir73-50" style="edgeStyle=orthogonalEdgeStyle;rounded=0;orthogonalLoop=1;jettySize=auto;html=1;entryX=0.5;entryY=0;entryDx=0;entryDy=0;" edge="1" parent="3" source="QLII5rvh0D_0dj86Ir73-44" target="QLII5rvh0D_0dj86Ir73-49">
          <mxGeometry relative="1" as="geometry" />
        </mxCell>
        <mxCell id="QLII5rvh0D_0dj86Ir73-44" value="注册事件处理" style="rounded=1;whiteSpace=wrap;html=1;" vertex="1" parent="3">
          <mxGeometry x="80.5" y="313" width="120" height="58" as="geometry" />
        </mxCell>
        <mxCell id="QLII5rvh0D_0dj86Ir73-49" value="注册失败落表" style="rounded=1;whiteSpace=wrap;html=1;" vertex="1" parent="3">
          <mxGeometry x="80.5" y="442" width="120" height="60" as="geometry" />
        </mxCell>
        <mxCell id="QLII5rvh0D_0dj86Ir73-51" value="补发注册接口" style="rounded=1;whiteSpace=wrap;html=1;" vertex="1" parent="3">
          <mxGeometry x="80.5" y="612" width="120" height="60" as="geometry" />
        </mxCell>
        <mxCell id="4" value="MALL" style="swimlane;whiteSpace=wrap" parent="1" vertex="1">
          <mxGeometry x="724.5" y="128" width="280" height="802" as="geometry" />
        </mxCell>
        <mxCell id="QLII5rvh0D_0dj86Ir73-47" value="注册" style="rounded=1;whiteSpace=wrap;html=1;" vertex="1" parent="4">
          <mxGeometry x="75.5" y="312" width="120" height="60" as="geometry" />
        </mxCell>
        <mxCell id="QLII5rvh0D_0dj86Ir73-52" value="xxljob" style="rounded=1;whiteSpace=wrap;html=1;" vertex="1" parent="4">
          <mxGeometry x="75.5" y="612" width="120" height="60" as="geometry" />
        </mxCell>
        <mxCell id="QLII5rvh0D_0dj86Ir73-45" style="edgeStyle=orthogonalEdgeStyle;rounded=0;orthogonalLoop=1;jettySize=auto;html=1;entryX=0;entryY=0.5;entryDx=0;entryDy=0;" edge="1" parent="1" source="QLII5rvh0D_0dj86Ir73-42" target="QLII5rvh0D_0dj86Ir73-44">
          <mxGeometry relative="1" as="geometry" />
        </mxCell>
        <mxCell id="QLII5rvh0D_0dj86Ir73-48" style="edgeStyle=orthogonalEdgeStyle;rounded=0;orthogonalLoop=1;jettySize=auto;html=1;entryX=0;entryY=0.5;entryDx=0;entryDy=0;" edge="1" parent="1" source="QLII5rvh0D_0dj86Ir73-44" target="QLII5rvh0D_0dj86Ir73-47">
          <mxGeometry relative="1" as="geometry" />
        </mxCell>
        <mxCell id="QLII5rvh0D_0dj86Ir73-53" style="edgeStyle=orthogonalEdgeStyle;rounded=0;orthogonalLoop=1;jettySize=auto;html=1;entryX=1;entryY=0.5;entryDx=0;entryDy=0;" edge="1" parent="1" source="QLII5rvh0D_0dj86Ir73-52" target="QLII5rvh0D_0dj86Ir73-51">
          <mxGeometry relative="1" as="geometry" />
        </mxCell>
      </root>
    </mxGraphModel>
  </diagram>
</mxfile>
